# Blender v2.79 (sub 0) OBJ File: 'level0.blend'
# www.blender.org
v 6.100000 -0.790210 -7.020000
v 6.100000 -0.790210 7.020000
v -6.100001 -0.790210 7.019999
v -6.099998 -0.790210 -7.020003
v 6.100003 -0.736433 -7.019998
v 6.099996 -0.736433 7.020005
v -6.100002 -0.736433 7.019998
v -6.099999 -0.736433 -7.020000
v 6.147094 -0.790209 -7.020000
v 6.147094 -0.790209 7.020000
v 6.147097 -0.736432 -7.019998
v 6.147090 -0.736432 7.020005
v 6.099997 2.554920 -7.019998
v 6.099990 2.554920 7.020005
v 6.147090 2.554921 -7.019998
v 6.147084 2.554921 7.020005
v 6.100000 -0.790213 7.102016
v -6.100001 -0.790213 7.102015
v 6.099996 -0.736436 7.102021
v -6.100002 -0.736436 7.102014
v 6.099996 2.556428 7.020118
v -6.100002 2.556428 7.020112
v 6.099996 2.556425 7.102134
v -6.100002 2.556425 7.102128
vt 0.001692 0.002921
vt 0.439897 0.502921
vt 0.001692 0.502921
vt 0.439897 0.500000
vt 0.878102 0.000000
vt 0.878102 0.500000
vt 0.560049 0.500000
vt 0.678269 1.000000
vt 0.560049 1.000000
vt 0.439897 0.000000
vt 0.439897 0.002921
vt 0.998308 0.500000
vt 0.996377 0.000000
vt 0.998308 0.000000
vt 0.798421 0.501677
vt 0.796490 0.936150
vt 0.796490 0.501677
vt 0.441828 0.500000
vt 0.439897 1.000000
vt 0.439897 0.500000
vt 0.241427 0.502921
vt 0.243118 0.504836
vt 0.241427 0.504836
vt 0.798421 0.500000
vt 0.000000 0.002921
vt 1.000000 0.500000
vt 0.998308 0.000000
vt 1.000000 0.000000
vt 0.796490 0.500000
vt 0.678269 0.501677
vt 0.678269 0.500000
vt 0.560049 1.000000
vt 0.441828 1.000000
vt 0.241427 0.622049
vt 0.118275 0.937393
vt 0.120206 0.502921
vt 0.120206 0.937394
vt 0.000000 0.502921
vt 0.118275 0.502921
vt 0.996377 0.502921
vt 0.996377 0.500000
vt 0.238481 0.502921
vt 0.798421 0.500000
vt 0.801367 0.934473
vt 0.798421 0.934473
vt 0.878102 0.500004
vt 0.120206 0.502921
vt 0.238481 0.937393
vt 0.120206 0.937393
vt 0.238481 0.622103
vt 0.238481 0.504836
vt 0.439897 0.000000
vt 0.678269 0.500000
vt 0.001692 0.000000
vt 0.798421 0.936150
vt 0.243118 0.502921
vt 0.000000 0.502921
vt 0.998308 0.500000
vt 0.560049 0.500000
vt 0.243118 0.622049
vt 0.000000 0.937393
vt 0.998308 0.502921
vt 0.801367 0.500000
vt 0.878102 0.502925
vt 0.238481 0.502921
vt 0.241427 0.622103
vn 0.0000 -1.0000 0.0000
vn 0.0000 1.0000 0.0000
vn -1.0000 -0.0000 -0.0000
vn 0.0000 0.0001 -1.0000
vn 1.0000 -0.0001 0.0000
vn -0.0000 -0.0001 1.0000
vn 0.0000 0.0000 -1.0000
vn 1.0000 0.0000 0.0000
vn 0.0000 0.0000 1.0000
vn 1.0000 0.0001 0.0000
s off
f 2/1/1 4/2/1 1/3/1
f 8/4/2 6/5/2 5/6/2
f 6/7/3 13/8/3 5/9/3
f 2/1/1 18/10/1 3/11/1
f 3/12/3 8/13/3 4/14/3
f 1/15/4 8/16/4 5/17/4
f 11/18/5 10/19/5 9/20/5
f 2/21/6 12/22/6 6/23/6
f 5/17/4 9/24/4 1/15/4
f 1/3/1 10/25/1 2/1/1
f 14/26/2 15/27/2 13/28/2
f 11/29/7 13/30/7 15/31/7
f 11/18/8 16/32/8 12/33/8
f 12/22/9 14/34/9 6/23/9
f 19/35/6 18/36/6 17/37/6
f 19/35/9 24/38/9 20/39/9
f 3/12/3 20/40/3 7/41/3
f 6/23/10 17/42/10 2/21/10
f 22/43/2 23/44/2 21/45/2
f 20/40/3 22/46/3 7/41/3
f 7/47/7 21/48/7 6/49/7
f 6/23/8 23/50/8 19/51/8
f 2/1/1 3/11/1 4/2/1
f 8/4/2 7/52/2 6/5/2
f 6/7/3 14/53/3 13/8/3
f 2/1/1 17/54/1 18/10/1
f 3/12/3 7/41/3 8/13/3
f 1/15/7 4/55/7 8/16/7
f 11/18/10 12/33/10 10/19/10
f 2/21/6 10/56/6 12/22/6
f 5/17/4 11/29/4 9/24/4
f 1/3/1 9/57/1 10/25/1
f 14/26/2 16/58/2 15/27/2
f 11/29/7 5/17/7 13/30/7
f 11/18/8 15/59/8 16/32/8
f 12/22/9 16/60/9 14/34/9
f 19/35/9 20/39/9 18/36/9
f 19/35/9 23/61/9 24/38/9
f 3/12/3 18/62/3 20/40/3
f 6/23/10 19/51/10 17/42/10
f 22/43/2 24/63/2 23/44/2
f 20/40/3 24/64/3 22/46/3
f 7/47/7 22/65/7 21/48/7
f 6/23/8 21/66/8 23/50/8
