# Blender v2.79 (sub 0) OBJ File: ''
# www.blender.org
v -39.454720 -3.000000 32.250000
v 39.454720 -3.000000 32.250000
v -39.454720 -3.000000 11.750000
v 39.454720 -3.000000 11.750000
v -79.454720 5.000000 -8.250000
v -0.545284 5.000000 -8.250000
v -79.454720 5.000000 -39.372833
v -0.545284 5.000000 -39.372833
vt 0.999889 0.378886
vt 0.000111 0.628230
vt 0.000111 0.378886
vt 0.999889 0.628230
vt 0.999889 0.000111
vt 0.999888 0.378663
vt 0.000111 0.378663
vt 0.000111 0.000112
vn 0.0000 1.0000 0.0000
s off
f 2/1/1 3/2/1 1/3/1
f 2/1/1 4/4/1 3/2/1
f 6/5/1 8/6/1 7/7/1
f 6/5/1 7/7/1 5/8/1
