# Blender v2.79 (sub 0) OBJ File: ''
# www.blender.org
v -8.000000 -1.000000 8.000000
v 8.000000 -1.000000 8.000000
v -8.000000 -1.000000 -8.000000
v 8.000000 -1.000000 -8.000000
v 8.000000 9.000000 8.000000
v 8.000000 9.000000 -8.000000
v -8.000000 -1.000000 8.000000
v -8.000000 9.000000 8.000000
v -7.208000 -1.000000 -7.655829
v -7.208000 -1.000000 -0.344171
v 3.208000 -1.000000 -0.344171
v 3.208000 -1.000000 -7.655829
v -7.208000 0.000000 -7.655829
v -7.208000 0.000000 -0.344171
v 3.208000 0.000000 -0.344171
v 3.208000 0.000000 -7.655829
v -7.196802 0.000000 -7.655829
v -7.196802 0.000000 -0.344171
v 0.094399 0.000000 -0.344171
v 0.094399 0.000000 -7.655829
v -7.196802 1.000000 -7.655829
v -7.196802 1.000000 -0.344171
v 0.094399 1.000000 -0.344171
v 0.094399 1.000000 -7.655829
v -7.193092 1.000000 -7.655829
v -7.193092 1.000000 -0.344171
v -2.089252 1.000000 -0.344171
v -2.089252 1.000000 -7.655829
v -7.193092 2.000000 -7.655829
v -7.193092 2.000000 -0.344171
v -2.089252 2.000000 -0.344171
v -2.089252 2.000000 -7.655829
vt 0.475899 0.999911
vt 0.337516 0.749113
vt 0.475900 0.500000
vt 0.788344 0.999911
vt 0.788345 0.000089
vt 0.788344 0.500000
vt 0.036102 0.963798
vt 0.305239 0.955857
vt 0.337947 0.981147
vt 0.018988 0.970372
vt 0.031283 0.772918
vt 0.000089 0.545604
vt 0.211797 0.790510
vt 0.313167 0.782944
vt 0.059191 0.795137
vt 0.057090 0.934042
vt 0.061162 0.795123
vt 0.075794 0.913288
vt 0.060308 0.934199
vt 0.214313 0.945358
vt 0.192297 0.926862
vt 0.078154 0.913472
vt 0.151624 0.920984
vt 0.080278 0.811473
vt 0.196218 0.812815
vt 0.139145 0.826728
vt 0.149674 0.813512
vt 0.081727 0.811549
vt 0.089305 0.900516
vt 0.094678 0.822176
vt 0.136816 0.908468
vt 0.475900 0.000089
vn 0.0000 1.0000 0.0000
vn -1.0000 0.0000 0.0000
vn 0.0000 0.0000 -1.0000
vn 0.0000 0.0000 1.0000
vn 1.0000 0.0000 0.0000
s off
f 4/1/1 11/2/1 2/3/1
f 2/3/2 6/4/2 4/1/2
f 2/3/3 8/5/3 5/6/3
f 9/7/3 16/8/3 12/9/3
f 3/10/1 10/11/1 9/7/1
f 3/10/1 12/9/1 4/1/1
f 1/12/1 11/2/1 10/11/1
f 16/8/1 19/13/1 15/14/1
f 11/2/4 14/15/4 10/11/4
f 12/9/5 15/14/5 11/2/5
f 10/11/2 13/16/2 9/7/2
f 18/17/2 21/18/2 17/19/2
f 14/15/1 17/19/1 13/16/1
f 16/8/4 17/19/4 20/20/4
f 14/15/4 19/13/4 18/17/4
f 24/21/4 25/22/4 28/23/4
f 17/19/3 24/21/3 20/20/3
f 19/13/4 22/24/4 18/17/4
f 20/20/5 23/25/5 19/13/5
f 28/23/5 31/26/5 27/27/5
f 22/24/4 27/27/4 26/28/4
f 24/21/1 27/27/1 23/25/1
f 22/24/1 25/22/1 21/18/1
f 31/26/1 29/29/1 30/30/1
f 26/28/2 29/29/2 25/22/2
f 25/22/3 32/31/3 28/23/3
f 27/27/4 30/30/4 26/28/4
f 4/1/1 12/9/1 11/2/1
f 2/3/2 5/6/2 6/4/2
f 2/3/3 7/32/3 8/5/3
f 9/7/3 13/16/3 16/8/3
f 3/10/1 1/12/1 10/11/1
f 3/10/1 9/7/1 12/9/1
f 1/12/1 2/3/1 11/2/1
f 16/8/1 20/20/1 19/13/1
f 11/2/4 15/14/4 14/15/4
f 12/9/5 16/8/5 15/14/5
f 10/11/2 14/15/2 13/16/2
f 18/17/2 22/24/2 21/18/2
f 14/15/1 18/17/1 17/19/1
f 16/8/4 13/16/4 17/19/4
f 14/15/4 15/14/4 19/13/4
f 24/21/4 21/18/4 25/22/4
f 17/19/3 21/18/3 24/21/3
f 19/13/4 23/25/4 22/24/4
f 20/20/5 24/21/5 23/25/5
f 28/23/5 32/31/5 31/26/5
f 22/24/3 23/25/3 27/27/3
f 24/21/1 28/23/1 27/27/1
f 22/24/1 26/28/1 25/22/1
f 31/26/1 32/31/1 29/29/1
f 26/28/2 30/30/2 29/29/2
f 25/22/3 29/29/3 32/31/3
f 27/27/4 31/26/4 30/30/4
