# Blender v2.79 (sub 0) OBJ File: 'gameEnemy.blend'
# www.blender.org
v 0.762252 0.149560 -0.604236
v 0.762252 0.149560 0.609956
v -0.762252 0.149560 0.609955
v -0.762252 0.149560 -0.604236
v 0.762252 1.620541 -0.604236
v 0.762251 1.620541 0.609956
v -0.762252 1.620541 0.609955
v -0.762252 1.620541 -0.604236
v 0.397935 0.425037 0.774782
v -0.397936 0.425037 0.774782
v 0.397935 1.345064 0.774782
v -0.397936 1.345064 0.774781
v 0.455247 -0.123837 -1.199879
v -0.455247 -0.123837 -1.199879
v 0.455248 0.718338 -1.199879
v -0.455247 0.718338 -1.199879
v 0.251977 0.114609 -1.670283
v -0.251976 0.114609 -1.670283
v 0.251977 0.479893 -1.670282
v -0.251976 0.479893 -1.670283
v 0.184651 0.141113 -1.974866
v -0.184649 0.141113 -1.974866
v 0.184651 0.453389 -1.974865
v -0.184649 0.453389 -1.974866
v 0.762252 -0.012265 -0.604236
v 0.762252 -0.012265 0.609956
v -0.762252 -0.012265 -0.604236
v -0.762252 -0.012265 0.609955
v 0.762252 -0.012265 -0.126637
v 0.762252 -0.012265 0.132356
v -0.762252 -0.012265 -0.126637
v -0.762252 -0.012265 0.132356
v 0.762252 -0.012265 0.609956
v -0.762252 -0.012265 0.609955
v 0.762252 -0.012265 0.132356
v -0.762252 -0.012265 0.132356
v 0.286813 -0.012265 0.609956
v -0.286813 -0.012265 0.609955
v 0.286813 -0.012265 0.132356
v -0.286813 -0.012265 0.132356
v 0.287020 -0.012265 -0.604236
v -0.287019 -0.012265 -0.604236
v 0.287020 -0.012265 -0.126637
v -0.287019 -0.012265 -0.126637
v 0.762252 -0.199974 0.132356
v 0.762252 -0.199974 0.609956
v 0.286813 -0.199974 0.132356
v 0.286813 -0.199974 0.609956
v -0.762252 -0.202139 0.132356
v -0.762252 -0.202139 0.609955
v -0.286813 -0.202139 0.132356
v -0.286813 -0.202139 0.609955
v 0.762252 -0.181350 -0.604236
v 0.762252 -0.181350 -0.126637
v 0.287020 -0.181350 -0.604236
v 0.287020 -0.181350 -0.126637
v -0.762252 -0.192024 -0.604236
v -0.762252 -0.192024 -0.126637
v -0.287019 -0.192024 -0.604236
v -0.287019 -0.192024 -0.126637
v 0.397935 0.425036 0.934274
v -0.397936 0.425036 0.934274
v 0.397935 1.345064 0.934275
v -0.397936 1.345064 0.934274
v 0.712097 0.191512 1.135930
v -0.712098 0.191512 1.135930
v 0.712097 1.578589 1.135931
v -0.712099 1.578589 1.135930
v 0.712097 0.191512 1.731301
v -0.712099 0.191512 1.731301
v 0.712097 1.578588 1.731301
v -0.712099 1.578588 1.731301
vt 0.263688 0.254681
vt 0.292697 0.471232
vt 0.263688 0.471232
vt 0.983945 0.744465
vt 0.767600 0.471232
vt 0.983945 0.471232
vt 0.625394 0.254681
vt 0.361706 0.471232
vt 0.361706 0.254681
vt 0.273282 0.734872
vt 0.065307 0.685499
vt 0.207975 0.685499
vt 0.000000 0.471232
vt 0.518952 0.726487
vt 0.680681 0.944696
vt 0.518952 0.999720
vt 0.485570 0.744465
vt 0.514021 0.909359
vt 0.485570 0.909359
vt 0.000000 0.471232
vt 0.207975 0.520605
vt 0.065307 0.520605
vt 0.273282 0.471232
vt 0.000000 0.734872
vt 0.412689 0.689441
vt 0.327928 0.562688
vt 0.412689 0.526256
vt 0.161729 0.143011
vt 0.312697 0.143011
vt 0.518952 0.744465
vt 0.518952 0.471232
vt 0.463665 0.143011
vt 0.680185 0.291687
vt 0.625394 0.369942
vt 0.625394 0.303753
vt 0.768685 0.418440
vt 0.768685 0.255255
vt 0.312697 0.143011
vt 0.420921 0.055515
vt 0.204472 0.055515
vt 0.269953 0.055515
vt 0.141206 0.849470
vt 0.085227 0.915659
vt 0.085227 0.849470
vt 0.355441 0.055515
vt 0.416170 0.000000
vt 0.265202 0.000000
vt 0.273282 0.640943
vt 0.273282 0.574754
vt 0.000000 0.000000
vt 1.000000 1.000000
vt 0.000000 1.000000
vt 0.000000 0.763876
vt 0.756114 0.999720
vt 0.727106 0.726487
vt 0.756114 0.726487
vt 0.332697 0.254681
vt 0.680681 0.999720
vt 0.727106 0.726487
vt 0.727106 0.999720
vt 0.000000 0.000000
vt 1.000000 1.000000
vt 0.000000 1.000000
vt 0.000000 0.000000
vt 1.000000 1.000000
vt 0.000000 1.000000
vt 0.000000 0.000000
vt 1.000000 1.000000
vt 0.000000 1.000000
vt 0.209279 0.849470
vt 0.243316 0.934650
vt 0.209279 0.934650
vt 0.000000 0.000000
vt 1.000000 1.000000
vt 0.000000 1.000000
vt 0.000000 0.000000
vt 1.000000 1.000000
vt 0.000000 1.000000
vt 1.000000 1.000000
vt 0.000000 1.000000
vt 0.854295 0.460948
vt 0.768685 0.358138
vt 0.854295 0.358138
vt 0.000000 0.000000
vt 1.000000 1.000000
vt 0.000000 1.000000
vt 0.911164 0.255255
vt 0.944813 0.340467
vt 0.911164 0.340467
vt 0.000000 0.000000
vt 1.000000 1.000000
vt 0.000000 1.000000
vt 0.768685 0.255255
vt 0.854295 0.358138
vt 0.768685 0.358138
vt 0.969690 0.914825
vt 1.000000 1.000000
vt 0.969690 1.000000
vt 0.000000 0.000000
vt 1.000000 1.000000
vt 0.000000 1.000000
vt 0.944813 0.340472
vt 0.977036 0.425647
vt 0.944813 0.425647
vt 0.170454 0.849470
vt 0.085227 0.763876
vt 0.170454 0.763876
vt 0.944813 0.425647
vt 0.911164 0.425647
vt 0.936041 0.829645
vt 0.969690 0.914825
vt 0.936041 0.914825
vt 0.902392 0.829645
vt 0.936041 0.914857
vt 0.902392 0.914857
vt 0.085227 0.849470
vt 0.000000 0.763876
vt 0.085227 0.763876
vt 0.175243 0.849470
vt 0.209279 0.849470
vt 0.175243 0.934682
vt 0.141206 0.849470
vt 0.175243 0.849470
vt 0.902392 0.744465
vt 0.936429 0.829645
vt 0.902393 0.829645
vt 0.085190 0.935064
vt 0.000000 0.849470
vt 0.085190 0.849470
vt 0.969690 0.829645
vt 1.000000 0.914825
vt 0.936041 0.914825
vt 0.966351 1.000000
vt 0.936041 1.000000
vt 0.968653 0.744465
vt 0.998963 0.829645
vt 0.968653 0.829645
vt 0.170454 0.763876
vt 0.255644 0.849470
vt 0.170454 0.849470
vt 0.936429 0.744465
vt 0.968653 0.829645
vt 0.936429 0.829645
vt 0.944813 0.255255
vt 0.977036 0.340435
vt 0.944813 0.340435
vt 0.517793 0.994534
vt 0.485570 0.909359
vt 0.517793 0.909359
vt 0.667255 0.056307
vt 0.625394 0.255255
vt 0.625394 0.000000
vt 0.873803 0.887107
vt 0.902393 0.744465
vt 0.902393 0.887107
vt 0.911164 0.255255
vt 0.882745 0.397897
vt 0.882745 0.255255
vt 0.854295 0.255255
vt 0.882745 0.420149
vt 0.854295 0.420149
vt 0.767600 0.744465
vt 0.873803 0.993068
vt 0.767600 0.993068
vt 0.874041 0.000000
vt 0.832179 0.056306
vt 0.832179 0.198948
vt 0.667255 0.198948
vt 0.874041 0.255255
vt 0.767600 0.471232
vt 0.518952 0.726487
vt 0.518952 0.471232
vt 0.980761 0.000000
vt 0.980761 0.255255
vt 0.379366 0.999720
vt 0.273282 0.744465
vt 0.379366 0.744465
vt 0.379366 0.993067
vt 0.485570 0.744465
vt 0.485570 0.993067
vt 0.292697 0.254681
vt 0.767600 0.744465
vt 0.625394 0.471232
vt 0.000000 0.254681
vt 0.680681 0.781511
vt 0.514021 0.744465
vt 0.327928 0.653010
vt 0.680185 0.382009
vt 0.141206 0.915659
vt 0.360192 0.000000
vt 0.209223 0.000000
vt 1.000000 0.000000
vt 0.273282 0.763876
vt 0.727106 0.999720
vt 0.332697 0.471232
vt 0.680681 0.726487
vt 1.000000 0.000000
vt 1.000000 0.000000
vt 1.000000 0.000000
vt 0.243316 0.849470
vt 1.000000 0.000000
vt 1.000000 0.000000
vt 0.768685 0.460948
vt 1.000000 0.000000
vt 0.944813 0.255255
vt 1.000000 0.000000
vt 0.854295 0.255255
vt 1.000000 0.000000
vt 0.977036 0.340472
vt 0.085227 0.849470
vt 0.969690 0.829645
vt 0.936041 0.829645
vt 0.000000 0.849470
vt 0.175243 0.934682
vt 0.141206 0.934682
vt 0.936429 0.744465
vt 0.000000 0.935064
vt 1.000000 0.829645
vt 0.966351 0.914825
vt 0.998963 0.744465
vt 0.255644 0.763876
vt 0.968653 0.744465
vt 0.977036 0.255255
vt 0.485570 0.994534
vt 0.873803 0.744465
vt 0.911164 0.397897
vt 0.873803 0.744465
vt 0.767600 0.726487
vt 0.273282 0.999720
vn -1.0000 0.0000 -0.0000
vn 0.0000 1.0000 -0.0000
vn 1.0000 -0.0000 0.0000
vn 0.0000 -0.5134 0.8581
vn 0.0000 0.5510 -0.8345
vn -0.0000 0.5134 0.8581
vn -0.4122 0.0000 0.9111
vn 0.4122 -0.0000 0.9111
vn 0.0000 -0.8920 -0.4521
vn -0.8889 -0.0000 -0.4581
vn -0.0000 -0.9088 0.4172
vn 0.8889 0.0000 -0.4581
vn 0.0000 0.9962 -0.0867
vn 0.0000 0.8920 -0.4521
vn 0.9180 -0.0000 -0.3967
vn -0.9180 0.0000 -0.3967
vn 0.0000 0.0000 -1.0000
vn 0.9764 0.0000 -0.2158
vn -0.9764 0.0000 -0.2158
vn 0.0000 -0.9962 -0.0867
vn -0.0000 0.0000 1.0000
vn 0.0000 -1.0000 0.0000
vn 0.0000 0.9997 0.0263
vn 0.0000 0.9999 0.0164
vn 0.0000 0.9997 -0.0247
vn 0.0000 0.6536 -0.7569
vn 0.5402 0.0000 -0.8416
vn -0.5402 -0.0000 -0.8416
vn 0.0000 -0.6536 -0.7569
vn 0.0000 -0.9969 0.0787
vn 0.0000 -0.9978 -0.0656
vn 0.0000 -0.9978 0.0656
vn 0.0000 -1.0000 -0.0082
s off
f 4/1/1 28/2/1 3/3/1
f 8/4/2 6/5/2 5/6/2
f 5/7/3 2/8/3 1/9/3
f 3/10/4 9/11/4 10/12/4
f 7/13/1 4/1/1 3/3/1
f 5/14/5 16/15/5 8/16/5
f 10/17/1 64/18/1 12/19/1
f 6/20/6 12/21/6 11/22/6
f 3/10/7 12/21/7 7/23/7
f 6/20/8 9/11/8 2/24/8
f 14/25/9 17/26/9 13/27/9
f 4/1/10 16/28/10 14/29/10
f 4/30/11 13/27/11 1/31/11
f 1/9/12 15/32/12 5/7/12
f 20/33/13 23/34/13 24/35/13
f 15/36/14 20/33/14 16/37/14
f 13/38/15 19/39/15 15/32/15
f 14/29/16 20/40/16 18/41/16
f 21/42/17 24/43/17 23/44/17
f 17/45/18 23/46/18 19/39/18
f 20/40/19 22/47/19 18/41/19
f 17/26/20 22/48/20 21/49/20
f 28/50/2 31/51/2 32/52/2
f 3/10/21 26/53/21 2/24/21
f 1/54/17 27/55/17 4/56/17
f 2/8/3 25/57/3 1/9/3
f 30/58/22 31/59/22 29/60/22
f 29/61/23 44/62/23 43/63/23
f 32/64/21 35/65/21 36/66/21
f 25/67/21 30/68/21 29/69/21
f 36/70/1 50/71/1 34/72/1
f 30/73/21 33/74/21 35/75/21
f 26/76/21 34/77/21 33/78/21
f 28/50/21 36/79/21 34/80/21
f 38/81/22 39/82/22 37/83/22
f 33/84/24 38/85/24 37/86/24
f 35/87/17 47/88/17 39/89/17
f 36/90/2 39/91/2 40/92/2
f 41/93/22 44/94/22 42/95/22
f 25/96/17 55/97/17 41/98/17
f 27/99/25 41/100/25 42/101/25
f 31/102/21 60/103/21 44/104/21
f 46/105/22 47/106/22 45/107/22
f 39/89/1 48/108/1 37/109/1
f 33/110/3 45/111/3 35/112/3
f 37/113/21 46/114/21 33/115/21
f 49/116/22 52/117/22 50/118/22
f 34/72/21 52/119/21 38/120/21
f 40/121/17 49/122/17 36/123/17
f 38/124/3 51/125/3 40/126/3
f 54/127/22 55/128/22 53/129/22
f 29/130/3 53/131/3 25/96/3
f 43/132/21 54/133/21 29/134/21
f 41/135/1 56/136/1 43/137/1
f 57/138/22 60/139/22 58/140/22
f 27/141/1 58/142/1 31/143/1
f 44/144/3 59/145/3 42/146/3
f 42/147/17 57/148/17 27/149/17
f 63/150/26 68/151/26 67/152/26
f 10/153/22 61/154/22 62/155/22
f 11/156/2 64/157/2 63/158/2
f 11/159/3 61/160/3 9/161/3
f 66/162/1 72/163/1 68/164/1
f 63/150/27 65/165/27 61/166/27
f 62/167/28 68/151/28 64/168/28
f 61/166/29 66/169/29 62/167/29
f 71/170/21 70/171/21 69/172/21
f 66/169/22 69/173/22 70/174/22
f 68/175/2 71/176/2 67/177/2
f 65/178/3 71/179/3 69/180/3
f 4/1/1 27/181/1 28/2/1
f 8/4/2 7/182/2 6/5/2
f 5/7/3 6/183/3 2/8/3
f 3/10/4 2/24/4 9/11/4
f 7/13/1 8/184/1 4/1/1
f 5/14/5 15/185/5 16/15/5
f 10/17/1 62/186/1 64/18/1
f 6/20/6 7/23/6 12/21/6
f 3/10/7 10/12/7 12/21/7
f 6/20/8 11/22/8 9/11/8
f 14/25/9 18/187/9 17/26/9
f 4/1/10 8/184/10 16/28/10
f 4/30/11 14/25/11 13/27/11
f 1/9/12 13/38/12 15/32/12
f 20/33/13 19/188/13 23/34/13
f 15/36/14 19/188/14 20/33/14
f 13/38/15 17/45/15 19/39/15
f 14/29/16 16/28/16 20/40/16
f 21/42/17 22/189/17 24/43/17
f 17/45/18 21/190/18 23/46/18
f 20/40/19 24/191/19 22/47/19
f 17/26/20 18/187/20 22/48/20
f 28/50/22 27/192/22 31/51/22
f 3/10/21 28/193/21 26/53/21
f 1/54/17 25/194/17 27/55/17
f 2/8/3 26/195/3 25/57/3
f 30/58/22 32/196/22 31/59/22
f 29/61/30 31/197/30 44/62/30
f 32/64/21 30/198/21 35/65/21
f 25/67/22 26/199/22 30/68/22
f 36/70/1 49/200/1 50/71/1
f 30/73/21 26/199/21 33/74/21
f 26/76/21 28/201/21 34/77/21
f 28/50/21 32/202/21 36/79/21
f 38/81/22 40/203/22 39/82/22
f 33/84/31 34/204/31 38/85/31
f 35/87/17 45/205/17 47/88/17
f 36/90/32 35/206/32 39/91/32
f 41/93/22 43/207/22 44/94/22
f 25/96/17 53/131/17 55/97/17
f 27/99/33 25/208/33 41/100/33
f 31/102/21 58/209/21 60/103/21
f 46/105/22 48/210/22 47/106/22
f 39/89/1 47/88/1 48/108/1
f 33/110/3 46/211/3 45/111/3
f 37/113/21 48/212/21 46/114/21
f 49/116/22 51/213/22 52/117/22
f 34/72/21 50/214/21 52/119/21
f 40/121/17 51/215/17 49/122/17
f 38/124/3 52/216/3 51/125/3
f 54/127/22 56/217/22 55/128/22
f 29/130/3 54/218/3 53/131/3
f 43/132/21 56/219/21 54/133/21
f 41/135/1 55/220/1 56/136/1
f 57/138/22 59/221/22 60/139/22
f 27/141/1 57/222/1 58/142/1
f 44/144/3 60/223/3 59/145/3
f 42/147/17 59/224/17 57/148/17
f 63/150/26 64/168/26 68/151/26
f 10/153/22 9/225/22 61/154/22
f 11/156/2 12/226/2 64/157/2
f 11/159/3 63/158/3 61/160/3
f 66/162/1 70/227/1 72/163/1
f 63/150/27 67/152/27 65/165/27
f 62/167/28 66/169/28 68/151/28
f 61/166/29 65/165/29 66/169/29
f 71/170/21 72/228/21 70/171/21
f 66/169/22 65/165/22 69/173/22
f 68/175/2 72/229/2 71/176/2
f 65/178/3 67/177/3 71/179/3
